<?xml version="1.0" standalone="no"?>
<!DOCTYPE svg PUBLIC "-//W3C//DTD SVG 20010904//EN"
 "http://www.w3.org/TR/2001/REC-SVG-20010904/DTD/svg10.dtd">
<svg version="1.0" xmlns="http://www.w3.org/2000/svg"
 width="225.000000pt" height="295.000000pt" viewBox="0 0 225.000000 295.000000"
 preserveAspectRatio="xMidYMid meet">
<metadata>
Created by potrace 1.10, written by Peter Selinger 2001-2011
</metadata>
<g transform="translate(0.000000,295.000000) scale(0.100000,-0.100000)"
fill="#000000" stroke="none">
<path d="M130 1464 c0 -1403 -1 -1368 39 -1266 8 17 17 32 22 32 5 0 9 4 9 9
0 11 63 112 243 393 20 32 37 60 37 63 0 3 5 11 10 18 6 7 25 35 42 62 17 28
41 66 53 85 12 19 40 64 62 100 22 36 62 100 89 143 27 42 56 90 65 105 9 15
44 70 77 122 34 52 74 118 90 145 31 55 130 213 197 315 69 107 115 180 115
185 0 2 13 24 29 47 53 78 481 764 481 770 0 2 -374 5 -830 7 l-830 3 0 -1338z
m1470 1293 c0 10 115 11 126 0 6 -5 -24 -67 -37 -77 -4 -3 -18 -25 -31 -50
-13 -25 -41 -70 -61 -100 -20 -30 -37 -58 -37 -62 0 -5 -8 -17 -17 -27 -21
-23 -58 -74 -58 -81 0 -7 -77 -134 -85 -140 -8 -7 -91 -145 -114 -189 -10 -20
-22 -37 -27 -39 -5 -2 -9 -10 -9 -18 0 -8 -7 -17 -15 -20 -8 -4 -15 -11 -15
-16 0 -6 -18 -37 -40 -70 -22 -33 -37 -65 -33 -71 3 -5 1 -7 -5 -3 -6 4 -16
-8 -23 -29 -7 -19 -17 -35 -21 -35 -4 0 -8 -5 -8 -11 0 -6 -22 -42 -50 -79
-27 -37 -50 -73 -50 -79 0 -6 -4 -11 -10 -11 -5 0 -19 -19 -31 -42 -52 -104
-65 -126 -105 -171 -6 -7 -9 -18 -6 -26 3 -8 0 -11 -7 -7 -6 4 -11 0 -11 -9 0
-10 -5 -13 -12 -9 -6 4 -8 3 -5 -3 4 -6 -7 -31 -23 -57 -17 -26 -30 -49 -30
-52 0 -8 -44 -69 -52 -72 -5 -2 -8 -8 -8 -14 0 -5 -11 -24 -25 -42 -14 -18
-25 -37 -25 -41 0 -4 -11 -23 -25 -41 -14 -18 -25 -37 -25 -43 0 -5 -6 -16
-13 -23 -12 -13 -68 -106 -96 -160 -8 -16 -18 -28 -23 -28 -4 0 -8 -7 -8 -17
0 -9 -3 -13 -6 -10 -4 4 -18 -15 -32 -41 -13 -26 -30 -54 -36 -62 -21 -26 -86
-138 -86 -147 0 -4 -9 -14 -20 -21 -12 -7 -18 -17 -15 -21 3 -5 1 -11 -3 -13
-5 -1 -22 -27 -39 -57 -16 -29 -34 -53 -39 -52 -5 0 -10 24 -11 53 -1 29 -4
81 -6 116 -3 34 -1 62 4 62 5 0 9 8 9 18 0 15 -2 15 -11 2 -9 -12 -10 -12 -5
4 4 10 6 518 6 1127 0 610 1 1110 2 1111 2 2 320 5 708 8 606 4 707 3 718 -9
6 -8 12 -10 12 -4z"/>
<path d="M2073 2778 c-5 -7 -22 -35 -38 -63 -27 -49 -105 -175 -483 -782 -100
-160 -182 -294 -182 -297 0 -3 160 -6 355 -6 l354 0 3 578 c2 317 3 578 2 580
-1 1 -6 -3 -11 -10z m-15 -588 c1 -288 -2 -490 -7 -490 -5 0 -7 -9 -4 -20 5
-20 0 -20 -311 -20 l-316 0 26 50 c14 28 30 50 34 50 4 0 10 8 13 18 8 23 54
104 64 111 4 3 15 19 23 36 15 29 72 121 89 141 4 5 30 47 56 92 27 48 51 79
57 75 7 -3 8 -1 4 6 -9 14 2 53 13 46 7 -4 21 19 32 50 1 6 10 18 20 28 9 10
24 36 34 57 10 22 22 37 26 34 5 -3 9 4 9 16 0 11 7 23 15 26 8 4 13 9 10 13
-2 4 7 19 21 34 13 14 23 30 22 34 -2 6 61 103 67 103 0 0 2 -220 3 -490z"/>
<path d="M1261 1436 c-86 -137 -141 -224 -236 -371 -39 -61 -206 -323 -419
-658 -87 -136 -162 -250 -167 -253 -38 -23 41 -25 841 -22 467 2 850 5 850 8
0 3 -9 16 -20 30 -11 14 -20 29 -20 33 0 5 -39 82 -87 170 -47 89 -104 196
-126 237 -22 41 -107 201 -190 355 -162 304 -317 593 -326 611 -3 6 -49 -57
-100 -140z m115 57 c3 -10 10 -27 16 -38 6 -10 21 -38 33 -62 13 -23 26 -39
31 -35 4 4 4 2 1 -4 -4 -7 1 -22 11 -35 9 -13 44 -78 77 -144 33 -66 63 -121
68 -123 4 -2 7 -8 7 -14 0 -5 9 -23 21 -39 11 -16 17 -34 13 -40 -4 -8 -3 -9
4 -5 7 4 12 1 12 -6 0 -8 15 -38 34 -68 19 -29 32 -60 29 -67 -3 -7 0 -13 5
-13 6 0 16 -16 23 -35 7 -19 17 -35 22 -35 4 0 6 -4 3 -9 -4 -5 -3 -11 2 -13
12 -5 94 -158 85 -158 -5 0 -3 -4 4 -8 6 -4 44 -70 83 -147 40 -77 77 -146 82
-152 6 -7 8 -20 4 -28 -4 -10 1 -15 15 -15 17 0 18 -3 9 -20 -10 -18 -20 -20
-108 -19 -53 1 -394 1 -757 0 -363 -1 -672 -1 -687 -1 -22 0 -25 3 -20 22 3
13 11 27 19 31 7 4 13 15 13 23 0 9 5 12 11 8 7 -4 10 -1 7 7 -3 8 8 30 23 50
16 20 29 41 29 47 0 5 7 15 15 22 8 7 12 16 9 21 -3 5 -1 9 4 9 5 0 17 16 28
35 10 19 22 35 26 35 3 0 10 10 14 23 4 12 16 36 28 52 12 17 26 37 31 46 6 9
19 29 29 45 16 24 84 130 153 239 7 11 27 43 43 71 17 29 41 63 53 76 13 14
22 29 20 34 -2 6 5 19 15 29 10 11 29 39 42 63 13 23 28 42 32 42 5 0 7 4 4 8
-3 5 6 20 20 35 13 14 24 30 24 36 0 16 68 110 74 103 4 -3 4 1 1 9 -3 9 1 22
10 29 8 7 15 20 15 29 0 14 2 14 10 1 9 -13 10 -13 11 0 1 8 1 21 0 29 -2 7 2
10 7 7 5 -3 12 3 15 14 6 25 36 26 43 3z"/>
</g>
</svg>
